{
  "accessors": [
    {
      "bufferView": 1,
      "componentType": 5126,
      "count": 65533,
      "max": [
        21.724000930786133,
        -0.0,
        156.0
      ],
      "min": [
        -7.0,
        -98.68800354003906,
        -119.625
      ],
      "type": "VEC3"
    },
    {
      "bufferView": 1,
      "byteOffset": 786396,
      "componentType": 5126,
      "count": 65533,
      "max": [
        1.0,
        1.0,
        1.0
      ],
      "min": [
        -1.0,
        -1.0,
        -1.0
      ],
      "type": "VEC3"
    },
    {
      "bufferView": 0,
      "componentType": 5125,
      "count": 202185,
      "type": "SCALAR"
    },
    {
      "bufferView": 1,
      "byteOffset": 1572792,
      "componentType": 5126,
      "count": 9904,
      "max": [
        20.599000930786133,
        -0.4620000123977661,
        80.4540023803711
      ],
      "min": [
        -6.84499979019165,
        -98.68800354003906,
        -65.33100128173828
      ],
      "type": "VEC3"
    },
    {
      "bufferView": 1,
      "byteOffset": 1691640,
      "componentType": 5126,
      "count": 9904,
      "max": [
        1.0,
        1.0,
        1.0
      ],
      "min": [
        -1.0,
        -1.0,
        -1.0
      ],
      "type": "VEC3"
    },
    {
      "bufferView": 0,
      "byteOffset": 808740,
      "componentType": 5125,
      "count": 23892,
      "type": "SCALAR"
    }
  ],
  "asset": {
    "extras": {
      "author": "Remaxp36 (https://sketchfab.com/Remaxp36)",
      "license": "CC-BY-4.0 (http://creativecommons.org/licenses/by/4.0/)",
      "source": "https://sketchfab.com/3d-models/m4a1-a51fee212ef14032bc679b32ccc79119",
      "title": "M4A1"
    },
    "generator": "Sketchfab-13.80.0",
    "version": "2.0"
  },
  "bufferViews": [
    {
      "buffer": 0,
      "byteLength": 904308,
      "name": "floatBufferViews",
      "target": 34963
    },
    {
      "buffer": 0,
      "byteLength": 1810488,
      "byteOffset": 904308,
      "byteStride": 12,
      "name": "floatBufferViews",
      "target": 34962
    }
  ],
  "buffers": [
    {
      "byteLength": 2714796,
      "uri": "scene.bin"
    }
  ],
  "extensionsUsed": [
    "KHR_materials_clearcoat"
  ],
  "materials": [
    {
      "doubleSided": true,
      "extensions": {
        "KHR_materials_clearcoat": {
          "clearcoatFactor": 1.0,
          "clearcoatRoughnessFactor": 0.04
        }
      },
      "name": "color_10988977",
      "pbrMetallicRoughness": {
        "baseColorFactor": [
          0.0,
          0.0,
          0.0,
          1.0
        ],
        "metallicFactor": 0.3636260601824742,
        "roughnessFactor": 0.0
      }
    }
  ],
  "meshes": [
    {
      "name": "Object_0",
      "primitives": [
        {
          "attributes": {
            "NORMAL": 1,
            "POSITION": 0
          },
          "indices": 2,
          "material": 0,
          "mode": 4
        }
      ]
    },
    {
      "name": "Object_1",
      "primitives": [
        {
          "attributes": {
            "NORMAL": 4,
            "POSITION": 3
          },
          "indices": 5,
          "material": 0,
          "mode": 4
        }
      ]
    }
  ],
  "nodes": [
    {
      "children": [
        1
      ],
      "matrix": [
        1.1102230246251565e-16,
        1.6653345369377348e-16,
        1.0,
        0.0,
        1.6653345369377348e-16,
        -1.0,
        2.220446049250313e-16,
        0.0,
        1.0,
        1.110223024625157e-16,
        -1.6653345369377346e-16,
        0.0,
        0.0,
        0.0,
        0.0,
        1.0
      ],
      "name": "Sketchfab_model"
    },
    {
      "children": [
        2,
        3
      ],
      "name": "tinker.obj.cleaner.materialmerger.gles"
    },
    {
      "mesh": 0,
      "name": "Object_2"
    },
    {
      "mesh": 1,
      "name": "Object_3"
    }
  ],
  "scene": 0,
  "scenes": [
    {
      "name": "Sketchfab_Scene",
      "nodes": [
        0
      ]
    }
  ]
}
